<svg xmlns="http://www.w3.org/2000/svg" id="flag-icon-cn" viewBox="0 0 640 480">
  <path fill="#de2910" d="M0 0h640v480H0z"/>
  <path fill="#ffde00" d="M100 120l45.89 140.9H4.22l116.56 84.85-44.45 140.18L100 360l116.67 85.92-44.45-140.18L100 260.9z"/>
  <path fill="#ffde00" d="M200 72.36l14.14 43.52H112.72l36.28 26.36-13.89 43.3 36.89-26.82L200 72.36zm-60-20l14.14 43.52H52.72l36.28 26.36-13.89 43.3 36.89-26.82L140 52.36zm-60-20l14.14 43.52H-7.28l36.28 26.36-13.89 43.3 36.89-26.82L80 32.36z"/>
</svg>